#!OML:ASF F:\VICON\USERDATA\INSTALL\rory3\rory3.ASF
:FULLY-SPECIFIED
:DEGREES
258
root 1.87562 17.9112 5.70006 8.84879 23.9215 1.68399
lowerback 24.7863 1.8907 -1.02035
upperback 7.74784 2.44053 1.48768
thorax -5.3222 1.2314 1.49715
lowerneck -12.229 -3.91915 -13.3651
upperneck 36.2626 -3.02362 4.28861
head 15.0248 -2.36975 3.71223
rclavicle -1.43125e-014 -1.51076e-014
rhumerus -11.1884 5.13 -83.2711
rradius 45.3376
rwrist 0.840436
rhand -17.7541 8.22778
rfingers 7.12502
rthumb 8.50769 -21.5808
lclavicle -1.43125e-014 -1.51076e-014
lhumerus -22.992 -7.75987 87.4505
lradius 56.6031
lwrist 8.15479
lhand -21.3807 30.9996
lfingers 7.12502
lthumb 5.00674 60.9204
rfemur -33.6643 -13.467 14.7713
rtibia 51.6383
rfoot -11.391 -0.242003
rtoes -4.03292
lfemur -26.9984 -0.090741 -19.049
ltibia 19.7438
lfoot 2.57854 -4.23067
ltoes -3.91457
259
root 1.89485 17.9032 5.69804 9.1465 24 1.59168
lowerback 25.4614 1.75906 -0.904729
upperback 7.84322 2.30544 1.57
thorax -5.54494 1.16665 1.5461
lowerneck -12.3596 -3.9163 -13.6539
upperneck 35.9631 -2.9489 4.34311
head 14.9139 -2.36151 3.78676
rclavicle 1.59028e-014 -3.18055e-015
rhumerus -10.743 5.8578 -83.3354
rradius 45.7134
rwrist 0.912373
rhand -17.8613 8.23633
rfingers 7.12502
rthumb 8.40416 -21.5765
lclavicle 1.59028e-014 -3.18055e-015
lhumerus -22.8164 -7.60542 87.3964
lradius 57.8315
lwrist 8.73898
lhand -22.5022 29.5526
lfingers 7.12502
lthumb 3.92382 59.4962
rfemur -34.3247 -13.6971 15.1433
rtibia 50.5287
rfoot -11.5432 -0.221935
rtoes -3.93374
lfemur -27.7058 -0.0119507 -19.0563
ltibia 20.402
lfoot 2.30273 -4.29785
ltoes -3.79193
260
root 1.91166 17.8931 5.69652 9.41477 24.1753 1.4701
lowerback 26.1328 1.69947 -0.632056
upperback 7.97679 2.302 1.61444
thorax -5.71909 1.16615 1.4269
lowerneck -12.3975 -4.04029 -13.7925
upperneck 35.5718 -3.15705 4.51111
head 14.768 -2.43422 3.83481
rclavicle -7.59357e-014 -1.66979e-014
rhumerus -10.323 6.10773 -83.3894
rradius 46.1685
rwrist 1.07124
rhand -18.0057 8.27276
rfingers 7.12502
rthumb 8.26481 -21.5456
lclavicle -7.59357e-014 -1.66979e-014
lhumerus -22.4768 -7.6821 87.3009
lradius 59.0936
lwrist 8.54928
lhand -21.8243 29.3675
lfingers 7.12502
lthumb 4.57841 59.298
rfemur -34.8543 -13.9809 15.5487
rtibia 49.3975
rfoot -11.6841 -0.223193
rtoes -4.21064
lfemur -28.4203 0.0154361 -19.0318
ltibia 21.0835
lfoot 1.99088 -4.42461
ltoes -3.57715
261
root 1.92822 17.8777 5.69296 9.82409 24.2701 1.4666
lowerback 26.7207 1.67985 -0.485121
upperback 8.12248 2.3188 1.63592
thorax -5.84047 1.17506 1.35059
lowerneck -12.5849 -4.18565 -13.8833
upperneck 35.2716 -3.36467 4.62589
head 14.6997 -2.50952 3.85418
rclavicle 3.65764e-014 -1.90833e-014
rhumerus -9.75664 6.5417 -83.3344
rradius 46.5549
rwrist 1.06692
rhand -18.1939 8.18718
rfingers 7.12502
rthumb 8.08322 -21.6382
lclavicle 3.65764e-014 -1.90833e-014
lhumerus -21.9369 -7.67313 87.1835
lradius 60.2679
lwrist 7.81149
lhand -20.4308 29.3479
lfingers 7.12502
lthumb 5.92388 59.2451
rfemur -35.5198 -14.2734 15.869
rtibia 48.2496
rfoot -11.703 -0.127235
rtoes -5.19184
lfemur -29.2546 0.101926 -19.1393
ltibia 21.789
lfoot 1.71189 -4.57154
ltoes -3.38334
262
root 1.93571 17.8568 5.68725 10.3194 24.4506 1.45297
lowerback 27.3101 1.58844 -0.364375
upperback 8.20478 2.24058 1.66938
thorax -6.02947 1.1381 1.33149
lowerneck -12.7961 -4.26842 -14.0036
upperneck 35.0543 -3.45301 4.70445
head 14.6628 -2.54544 3.88513
rclavicle -2.38542e-015 1.74931e-014
rhumerus -9.20253 7.11601 -83.3456
rradius 46.8839
rwrist 1.13828
rhand -18.5154 8.08788
rfingers 7.12502
rthumb 7.77289 -21.7492
lclavicle -2.38542e-015 1.74931e-014
lhumerus -21.5525 -7.96439 87.1215
lradius 61.5769
lwrist 8.48056
lhand -20.6868 32.677
lfingers 7.12502
lthumb 5.67678 62.5809
rfemur -36.4025 -14.4288 16.2093
rtibia 47.0836
rfoot -11.535 0.0136295
rtoes -5.64202
lfemur -30.2434 0.251091 -19.2297
ltibia 22.4996
lfoot 1.50998 -4.86613
ltoes -3.18732
263
root 1.94061 17.8355 5.68371 10.7811 24.7416 1.42735
lowerback 27.9189 1.49183 -0.155753
upperback 8.2793 2.18327 1.71477
thorax -6.23293 1.11139 1.26905
lowerneck -12.8411 -4.38102 -14.0518
upperneck 34.6805 -3.59729 4.68633
head 14.5189 -2.60326 3.84907
rclavicle -2.38542e-014 2.54444e-014
rhumerus -8.74333 7.42537 -83.3823
rradius 47.2488
rwrist 1.20536
rhand -18.8064 8.10059
rfingers 7.12502
rthumb 7.49204 -21.7467
lclavicle -2.38542e-014 2.54444e-014
lhumerus -21.2534 -8.50594 87.1685
lradius 62.9624
lwrist 9.62219
lhand -22.4388 29.4842
lfingers 7.12502
lthumb 3.98503 59.4267
rfemur -37.1892 -14.5954 16.5473
rtibia 45.9394
rfoot -11.1967 0.148209
rtoes -5.92497
lfemur -31.2059 0.409693 -19.3192
ltibia 23.1952
lfoot 1.30995 -5.27623
ltoes -3.03861
264
root 1.95001 17.8173 5.68415 11.2572 24.8466 1.51519
lowerback 28.493 1.48406 -0.0620653
upperback 8.38547 2.2059 1.7263
thorax -6.387 1.12282 1.21101
lowerneck -12.7964 -4.49517 -14.1547
upperneck 34.238 -3.75938 4.71827
head 14.3297 -2.6677 3.83946
rclavicle 1.11319e-014 -7.15625e-015
rhumerus -8.1865 7.71626 -83.364
rradius 47.472
rwrist 1.43359
rhand -18.939 8.108
rfingers 7.12502
rthumb 7.36399 -21.7438
lclavicle 1.11319e-014 -7.15625e-015
lhumerus -20.8455 -8.49266 87.0853
lradius 64.3529
lwrist 8.30417
lhand -19.6559 32.7467
lfingers 7.12502
lthumb 6.67204 62.6215
rfemur -37.8552 -14.7597 16.7829
rtibia 44.8418
rfoot -10.8011 0.358222
rtoes -7.38931
lfemur -32.0888 0.63232 -19.5435
ltibia 23.9058
lfoot 1.01361 -5.59347
ltoes -3.00529
265
root 1.95986 17.7969 5.68104 11.8601 24.9539 1.65797
lowerback 28.9379 1.44925 -0.029509
upperback 8.50608 2.17946 1.75894
thorax -6.46312 1.11087 1.23049
lowerneck -12.8566 -4.56961 -14.3473
upperneck 33.9157 -3.86549 4.87982
head 14.2193 -2.70675 3.91193
rclavicle -2.06736e-014 6.52014e-014
rhumerus -7.54117 8.23515 -83.2538
rradius 47.7349
rwrist 1.735
rhand -18.7495 7.78363
rfingers 7.12502
rthumb 7.54698 -22.0617
lclavicle -2.06736e-014 6.52014e-014
lhumerus -20.616 -9.6775 87.5118
lradius 66.6396
lwrist 11.5586
lhand -23.4825 40.509
lfingers 7.12502
lthumb 2.97714 70.468
rfemur -38.6669 -14.9904 17.0107
rtibia 43.8412
rfoot -10.3246 0.655496
rtoes -8.84761
lfemur -33.0952 0.737327 -19.7966
ltibia 24.6206
lfoot 0.760561 -5.78939
ltoes -2.72055
266
root 1.96776 17.7712 5.67784 12.4554 25.1177 1.73577
lowerback 29.3116 1.44893 0.0435119
upperback 8.66772 2.21166 1.83051
thorax -6.45968 1.12709 1.25224
lowerneck -12.9661 -4.71354 -14.3432
upperneck 33.5603 -4.06638 4.88823
head 14.1083 -2.77918 3.86971
rclavicle 3.4191e-014 3.18055e-014
rhumerus -6.8264 8.7011 -83.014
rradius 48.0135
rwrist 2.01414
rhand -18.6419 7.55743
rfingers 7.12502
rthumb 7.65075 -22.2842
lclavicle 3.4191e-014 3.18055e-014
lhumerus -19.9538 -9.60779 87.4341
lradius 66.7408
lwrist 11.1768
lhand -24.5512 30.293
lfingers 7.12502
lthumb 1.94502 60.2638
rfemur -39.543 -15.2293 17.3058
rtibia 42.9798
rfoot -9.61391 1.00008
rtoes -8.06315
lfemur -34.1476 0.833623 -19.9857
ltibia 25.3401
lfoot 0.501265 -5.9954
ltoes -2.44588
267
root 1.97294 17.7448 5.68024 12.9798 25.2728 1.77376
lowerback 29.7279 1.48723 0.164403
upperback 8.86226 2.30574 1.8872
thorax -6.43699 1.17315 1.20841
lowerneck -13.1248 -4.92204 -14.2972
upperneck 33.1696 -4.35846 4.88041
head 14.0031 -2.88643 3.79731
rclavicle 5.56597e-015 -2.8625e-014
rhumerus -6.05754 9.11389 -82.6624
rradius 48.2201
rwrist 2.37268
rhand -18.8184 7.70846
rfingers 7.12502
rthumb 7.48041 -22.1393
lclavicle 5.56597e-015 -2.8625e-014
lhumerus -19.417 -10.1959 87.5979
lradius 67.9616
lwrist 11.7406
lhand -25.2462 26.7551
lfingers 7.12502
lthumb 1.27378 56.7311
rfemur -40.382 -15.5388 17.7123
rtibia 42.2978
rfoot -8.69406 1.24357
rtoes -4.1245
lfemur -35.1449 1.17909 -20.216
ltibia 26.0694
lfoot 0.218492 -6.45609
ltoes -2.07508
268
root 1.97239 17.72 5.68072 13.5311 25.5444 1.8715
lowerback 30.2275 1.44274 0.327079
upperback 9.03146 2.30654 1.89594
thorax -6.47411 1.17558 1.11683
lowerneck -13.3507 -5.09883 -14.3098
upperneck 32.8446 -4.60739 4.96401
head 13.9415 -2.97316 3.78099
rclavicle 6.04305e-014 3.65764e-014
rhumerus -5.17584 9.40369 -82.4526
rradius 48.2597
rwrist 2.98109
rhand -18.8807 7.89487
rfingers 7.12502
rthumb 7.42034 -21.955
lclavicle 6.04305e-014 3.65764e-014
lhumerus -18.9699 -10.7361 87.6492
lradius 69.5343
lwrist 11.8628
lhand -24.859 27.7893
lfingers 7.12502
lthumb 1.6477 57.7627
rfemur -41.2162 -15.9462 18.1438
rtibia 41.848
rfoot -7.82132 1.0801
rtoes 0.360132
lfemur -36.1898 1.43624 -20.4845
ltibia 26.8377
lfoot -0.0475158 -6.99222
ltoes -1.51331
269
root 1.97153 17.6925 5.67873 14.221 25.8703 2.0776
lowerback 30.6242 1.33514 0.360036
upperback 9.19302 2.19682 1.95816
thorax -6.4746 1.12545 1.20027
lowerneck -13.6009 -5.22708 -14.5192
upperneck 32.5179 -4.74894 5.11266
head 13.8823 -3.03008 3.84186
rclavicle 2.78299e-014 3.97569e-014
rhumerus -4.21268 9.79718 -82.2792
rradius 48.2404
rwrist 3.60666
rhand -18.9394 8.05273
rfingers 7.12502
rthumb 7.36361 -21.7991
lclavicle 2.78299e-014 3.97569e-014
lhumerus -18.5735 -11.0968 87.7224
lradius 71.4878
lwrist 11.6637
lhand -24.2902 33.634
lfingers 7.12502
lthumb 2.19707 63.6024
rfemur -42.1823 -16.4656 18.5311
rtibia 41.6912
rfoot -7.25897 0.245372
rtoes 3.25625
lfemur -37.3558 1.47788 -20.8052
ltibia 27.6296
lfoot -0.257822 -7.4528
ltoes -1.78522
270
root 1.97204 17.6563 5.67524 14.8741 26.1721 2.31266
lowerback 31.1027 1.24695 0.428804
upperback 9.33879 2.12293 2.00753
thorax -6.52822 1.09244 1.23555
lowerneck -13.8068 -5.36667 -14.6714
upperneck 32.1753 -4.91895 5.2353
head 13.8078 -3.09495 3.87723
rclavicle -7.95139e-016 -6.04305e-014
rhumerus -3.3647 10.2789 -82.0765
rradius 48.315
rwrist 4.01742
rhand -19.1975 7.89864
rfingers 7.12502
rthumb 7.11447 -21.9618
lclavicle -7.95139e-016 -6.04305e-014
lhumerus -18.1919 -11.4511 87.7848
lradius 72.6136
lwrist 11.9066
lhand -24.7854 30.9544
lfingers 7.12502
lthumb 1.71888 60.9272
rfemur -43.1577 -17.0656 18.9204
rtibia 41.8142
rfoot -7.13291 -1.51352
rtoes 3.65037
lfemur -38.4866 1.5322 -21.17
ltibia 28.4384
lfoot -0.461139 -7.91201
ltoes -2.3664
271
root 1.96986 17.615 5.66897 15.4917 26.4512 2.50368
lowerback 31.6761 1.19326 0.628301
upperback 9.43438 2.12751 1.997
thorax -6.67544 1.09666 1.09879
lowerneck -13.9472 -5.54128 -14.6126
upperneck 31.8569 -5.17471 5.26284
head 13.7296 -3.18398 3.82487
rclavicle -6.67916e-014 1.98785e-014
rhumerus -2.5376 10.9714 -81.8441
rradius 48.3052
rwrist 3.84054
rhand -19.8914 7.36661
rfingers 7.12502
rthumb 6.44467 -22.5153
lclavicle -6.67916e-014 1.98785e-014
lhumerus -17.9124 -12.0575 87.8808
lradius 73.9482
lwrist 11.8738
lhand -25.308 29.6533
lfingers 7.12502
lthumb 1.21408 59.6296
rfemur -44.1349 -17.5921 19.3563
rtibia 42.1553
rfoot -7.41078 -3.60094
rtoes 2.05326
lfemur -39.6182 1.64034 -21.5001
ltibia 29.239
lfoot -0.65661 -8.35744
ltoes -1.901
